<svg xmlns="http://www.w3.org/2000/svg" preserveAspectRatio="xMidYMid" version="1.0" viewBox="0 0 695.74042 699.38666">
  <path fill="#666"
    d="m62.304736 542.01878-10.57692-36.53846 66.346154-52.88461-32.692314-76.92308-76.9230761-11.53846 6.7307701-75.96154 37.500006-104.80769 31.73076-3.84615 48.076924 21.15384 62.50001-64.42307-22.11539-80.769238S277.68936-.28891275 334.42012 8.3649372c56.73077 8.6538398 20.19231 43.2692348 20.19231 43.2692348l25.96154 45.1923 76.92306 13.461538 46.1539-54.807688 29.8077 3.84615s77.88458 53.846158 94.23068 110.576928c16.3462 56.73077-55.7692 43.26923-55.7692 43.26923l25.9615 227.88461-153.84608 150s-280.76925 15.38462-381.730794-49.03846z"
    paint-order="fill markers stroke" />
  <ellipse cx="349.74286" cy="345.02841" fill="#8a0" paint-order="fill markers stroke" rx="207.77679" ry="216.12259" />
  <path
    d="M310.88166 1.6110922c-41.6 5.3-83.7 16.0999998-112.1 28.5999998-13.1 5.8-20.2 10.6-26.1 17.9-6.5 8.1-7.7 14.7-4.8 28.3 2 9.6 9.5 35.699998 14.5 50.199998 1.4 4.1 2.5 7.9 2.5 8.5 0 .6-3.3 3.6-7.2 6.6-9.5 7.2-32.6 30.3-40.7 40.6l-6.3 8.2-7.4-3.4c-16.8-7.6-47.200004-16.4-57.000004-16.4-11.2 0-18.3 5.1-27 19.2-9.6 15.6-31.0000001 82.1-36.5000001 113.3-2.89999995 16.7-3.69999995 43.1-1.6 50.6 3.2 10.9 8.7 16 22.0000001 20.3 8.4 2.7 38.8 9.7 51.1 11.7 9.2 1.6 8.4.4 12.1 17.9 3.1 14.2 8.5 31.6 14.000004 44.4 2.1 4.8 3.6 8.8 3.4 9-.2.2-6.500004 4.4-13.900004 9.4-25.6 17.1-37.4 28.4-40.1 38.7-1.7 6-.5 18.9 2.4 27.3 2.8 8 14.9 27 26 40.7 16 19.8 43.000004 46.3 63.200004 62 13.1 10.2 22.8 15.2 33.1 17 8.3 1.4 11.7.9 19.5-3 5.5-2.8 23.1-20.1 39.9-39 6.8-7.7 13.1-14.8 14-15.8 1.7-1.8 2.2-1.7 14.3 2.1 15 4.9 31.8 8.7 44.8 10.4l9.7 1.2.6 7.5c1.6 17.9 9.7 48.8 16.7 63.7 3.2 6.8 9.3 13 15.8 16.4 6.5 3.3 19.1 4.5 32.7 3.1 26.6-2.7 99.5-24.2 121.6-35.8 13.4-7.1 20.3-16.1 22.9-29.8 2.4-12.9-1.2-27.6-15.5-63l-6.5-16 3.7-3c9.4-7.6 21.4-19 28.3-26.6 6.1-6.8 16.1-18.7 16.4-19.6 0-.1 5.4 2.5 12 5.8 14.6 7.2 34.9 15.3 43.6 17.4 3.5.8 10.7 1.8 15.9 2.1 8.6.6 10 .4 14.5-1.7 8.1-3.7 14.5-11.2 20.9-24.1 9.3-18.8 20.8-55.6 32.2-102.8 4.9-20.6 4.2-46.5-1.6-59.7-2.4-5.5-9.5-12.5-16.1-15.8-8.6-4.4-30.5-8.9-65.3-13.4l-4.9-.6-2.3-12c-3-16.3-5.6-26.1-11-41.2-2.5-7.1-4.8-13.5-5.1-14.4-.3-1.2 2.2-3.6 9.4-8.7 23.8-16.9 44.8-34.8 48.8-41.6 3.2-5.4 3.1-8.4-.1-18.2-7.9-23.7-27.9-52.1-57.3-81.499998-23.5-23.5-44.3-39.1-58.6-44.1-15.7-5.5-26.8-3.3-38.1 7.4-7.5 7.1-23.3 25-32.9 37.3-4.3 5.499998-8.1 9.899998-8.4 9.799998-.3-.1-6.9-2.5-14.6-5.399998-14.3-5.2-35.2-10.8-48.2-12.9-8.2-1.3-7.6-.3-8.8-15-1.4-17.3-8.3-49.8-12-57-7.1-13.6999998-21.7-17.1999998-54.5-13.0999998zm32.7 11.3999998c7.4 1.6 9.7 3.4 11.7 9.4 1.4 4.2 1.4 4.4-.2 3.7-3.2-1.3-29.3-1.6-40.6-.4-40.9 4.4-98.1 20.9-114.3 32.8-7.6 5.6-7.7 6.3-5.4 19.6 1.2 6.4 5.3 24.299998 9.1 39.699998 3.9 15.5 6.9 28.4 6.6 28.6-.2.2-3.7 2.7-7.9 5.6-21 14.5-33.8 28.4-56.6 61.7-4 5.8-7.5 10.5-7.9 10.5-.4 0-5.3-2.4-10.9-5.3-21.6-11-44.700004-19.3-53.900004-19.4-7.2-.1-9.2.8-12.7 5.9-3.5 5.1-13.2 30.9-20.8 55.2-11.6 37.4-14.3 52.7-14.3 82.2l-.1 19.7-4.6-2.4c-7.4-3.7-8.4-6.8-8.4-24.9.1-12.9.5-17.1 3.3-30.5 11.1-53 30.7-108.2 41.9-118.1 2.9-2.5 4.2-2.9 9.1-2.9 9.8 0 34.500004 7.4 56.700004 17l12 5.1 2-2.7c13.5-18.5 34.4-40.7 49.5-52.4 4.6-3.6 9.4-7.4 10.7-8.5l2.5-2-2.6-6.9c-6.7-17.7-18.6-61.999998-18.6-68.999998 0-6.5 7.8-13.9 21.8-21 8.3-4.2 25.9-11.2 35.2-14 18.4-5.5 57-13.3 80-16.1 14-1.7 20.3-1.7 27.7-.2zm189 53.1c15.8 9.1 26.4 17.6 44.9 36.099998 22.2 22.1 36.4 40.9 42.6 56.2 2.7 6.9 3.1 8.9 3.1 17.2-.1 5.1-.5 9.7-1.1 10.3-.6.6-3.3-2.9-7.7-10.4-15.5-25.8-30.7-45-53.1-66.8-21.2-20.599998-40.2-34.099998-48.5-34.399998-7.9-.2-19.6 12.4-44.6 47.999998l-10.6 15.2-6.6-4.1c-10.1-6.2-21.5-11.2-33.1-14.6-12-3.4-35-8.7-42.6-9.7-2.8-.3-5.6-.9-6.1-1.3-1.4-.8-2.6-9.799998-1.5-10.499998 1.2-.7 18.3 1.8 30.7 4.399998 12.6 2.7 36.6 10.6 47 15.4l8 3.7 2-2.8c8.3-11.5 31.2-38.999998 38.5-46.199998 11-10.9 13.5-12.3 22-11.8 5.8.3 7.6.9 16.7 6.1zm-149.7 83.199998c34.6 5.4 67.2 19.4 93.7 40 21.4 16.7 26.4 24 27.1 39.3.4 8.3.3 9.1-3.1 16.4-11.5 24.9-40.8 32.4-61.9 15.7-22.7-17.9-31.9-23.4-48.4-28.9-14.8-5-25.6-6.4-43.9-5.8-18.3.5-28.8 2.8-44.5 9.6-25.4 10.9-47.6 31.2-59.7 54.6-5.3 10.4-9.8 23.3-11.9 34.2-2.5 13.3-1.5 37.4 1.9 50.6 11.9 44.9 47.3 78.3 93.7 88.3 11.4 2.4 32.5 2.9 44.2 1 25.4-4.2 47.4-14.9 65.8-32.2 11-10.4 19-21.4 26-35.8 5-10.2 9.6-23.3 8.6-24.3-.1-.1-4.7.9-10.2 2.3-20 5.2-47.1 4.3-67.3-2.2-10-3.2-26.6-11.5-31.6-15.8-3.6-3.1-3.8-3.5-2-4.2 1.1-.3 13.9-6.2 28.5-12.9 40.8-18.9 60-27.6 64.3-29.1 3.2-1.1 13.5-1.4 51.2-1.4h47.3l1.2 8.2c4 26.3 2.5 52.1-4.5 78.5-17 64.3-67.3 117.3-131.5 138.3-21.5 7.1-41.7 10.3-65 10.2-17.3-.1-29.5-1.4-45-4.8-39.4-8.9-70.9-26.3-100-55.4-23.6-23.5-38.3-47.2-49.1-78.8-12.9-38-10.9-88.9 5.2-130.7 4.7-12.2 15.2-31.9 22.7-42.5 8.6-12.3 33.7-37.4 45.7-45.9 31.9-22.5 65.9-35.1 102.7-38.1 13.4-1.1 37.8-.3 49.8 1.6zm174.7 106.1c8.5 18.3 16.8 47 19.3 67.3 1.3 11 1.3 39.4-.1 51.8-4.4 40.5-21.3 82.1-46.2 114.2-30.7 39.6-74.6 68.4-122.6 80.4-29.64476 7.08098-66.99609 9.45383-97 3.2-143.57133-29.48872-160.67316-149.3969-160.8-150.3.40848-.20424 10.54618 26.25158 22.9 45.4 20.5 31.6 49.8 57.4 84.3 74.3 20.2 9.9 37.4 15.5 60 19.6 12 2.1 42.4 3 56.2 1.5 38.6-4 76.4-18.8 107.1-41.8 9.8-7.4 29.6-26.6 37.5-36.3 26.2-32.5 42.2-71.6 46.8-114.5 2.4-22.8-.5-55.3-7.3-79.5-9.72578-35.13191-31.11419-64-30.3-64 19.21498-2.82632 22.62556 13.12912 30.2 28.7zm-181.5 9.4c3.1 1.4 4.8 3.9 9.7 14.6 5.4 11.8 5.7 16.5 1.2 20.5-2 1.8-4.3 2.8-6.2 2.8-5.7 0-8.4-2.4-13.2-11.7-6.1-11.9-7.4-16.3-5.7-20.3 2.5-6 8.6-8.6 14.2-5.9zm-252.9 203.5c1.6 3.1 2.7 5.7 2.5 5.8-.2.2-8 5.5-17.4 12-32.600004 22.3-36.600004 26.4-40.300004 41.4l-1.7 6.6-2.4-5.5c-1.8-4.1-2.4-7.3-2.4-13.5-.1-7.4.1-8.4 2.7-11.8 3.5-4.5 12.8-12.4 25.8-21.7 9.1-6.5 28.700004-18.9 29.900004-18.9.3 0 1.8 2.5 3.3 5.6z" />
  <ellipse cx="358.93933" cy="368.46109" fill="none" paint-order="fill markers stroke" rx="240.86539" ry="221.63461" />
</svg>