<?xml version="1.0" encoding="UTF-8" standalone="no"?>
<svg
   version="1.0"
   width="400.000000pt"
   height="400.000000pt"
   viewBox="0 0 400.000000 400.000000"
   preserveAspectRatio="xMidYMid meet"
   id="svg1"
   sodipodi:docname="2029138.svg"
   inkscape:version="1.4 (e7c3feb100, 2024-10-09)"
   xmlns:inkscape="http://www.inkscape.org/namespaces/inkscape"
   xmlns:sodipodi="http://sodipodi.sourceforge.net/DTD/sodipodi-0.dtd"
   xmlns="http://www.w3.org/2000/svg"
   xmlns:svg="http://www.w3.org/2000/svg">
  <defs
     id="defs1" />
  <sodipodi:namedview
     id="namedview1"
     pagecolor="#ffffff"
     bordercolor="#000000"
     borderopacity="0.25"
     inkscape:showpageshadow="2"
     inkscape:pageopacity="0.0"
     inkscape:pagecheckerboard="0"
     inkscape:deskcolor="#d1d1d1"
     inkscape:document-units="pt"
     inkscape:zoom="0.47597125"
     inkscape:cx="302.53928"
     inkscape:cy="289.93348"
     inkscape:window-width="1920"
     inkscape:window-height="1011"
     inkscape:window-x="0"
     inkscape:window-y="0"
     inkscape:window-maximized="1"
     inkscape:current-layer="svg1" />
  <path
     style="fill:#ffffff;stroke-width:5.6693;stroke-linecap:round;stroke-linejoin:round;paint-order:fill markers stroke"
     d="M 154.85638,201.52544 30.405592,67.175144 61.51829,38.890873 201.52544,158.39192 335.87572,30.405592 362.74578,79.903065 243.95184,208.5965 366.98842,325.26912 327.39044,370.52395 192.33304,246.07316 c 0,0 -117.379722,138.59293 -121.622362,127.98632 -4.242641,-10.60659 -44.547727,-57.27564 -44.547727,-57.27564 z"
     id="path2" />
  <g
     transform="translate(0.000000,400.000000) scale(0.100000,-0.100000)"
     fill="#000000"
     stroke="none"
     id="g1">
    <path
       d="M387 3602 l-389 -389 614 -606 613 -607 -613 -607 -614 -608 391 -390 391 -390 610 610 610 610 610 -610 610 -610 391 390 391 390 -614 608 -613 607 613 608 614 607 -391 390 -391 390 -610 -610 -610 -610 -608 608 c-334 334 -609 607 -612 607 -3 0 -180 -175 -393 -388z m943 -825 c364 -362 666 -657 671 -655 13 5 229 217 801 787 l538 535 55 -54 55 -55 -667 -667 -668 -668 668 -668 667 -667 -55 -55 -55 -54 -538 535 c-620 618 -790 784 -802 784 -12 0 -182 -166 -802 -784 l-538 -535 -55 54 -55 55 667 667 668 668 -668 668 -667 667 52 53 c29 28 56 51 59 50 4 -2 305 -299 669 -661z"
       id="path1" />
  </g>
</svg>
