<?xml version="1.0" encoding="UTF-8" standalone="no"?>
<svg
   version="1.1"
   viewBox="0 0 1200 630"
   opacity="0.2"
   id="svg25"
   sodipodi:docname="opengraph-bg.svg"
   width="1200"
   height="630"
   inkscape:version="1.4 (e7c3feb1, 2024-10-09)"
   xmlns:inkscape="http://www.inkscape.org/namespaces/inkscape"
   xmlns:sodipodi="http://sodipodi.sourceforge.net/DTD/sodipodi-0.dtd"
   xmlns:xlink="http://www.w3.org/1999/xlink"
   xmlns="http://www.w3.org/2000/svg"
   xmlns:svg="http://www.w3.org/2000/svg">
  <sodipodi:namedview
     id="namedview25"
     pagecolor="#ffffff"
     bordercolor="#000000"
     borderopacity="0.25"
     inkscape:showpageshadow="2"
     inkscape:pageopacity="0.0"
     inkscape:pagecheckerboard="0"
     inkscape:deskcolor="#d1d1d1"
     inkscape:zoom="0.47168293"
     inkscape:cx="558.63798"
     inkscape:cy="445.21433"
     inkscape:window-width="1664"
     inkscape:window-height="903"
     inkscape:window-x="7"
     inkscape:window-y="33"
     inkscape:window-maximized="0"
     inkscape:current-layer="svg25" />
  <defs
     id="defs2">
    <linearGradient
       x1="0.5"
       y1="0"
       x2="0.5"
       y2="1"
       id="uundulate-grad">
      <stop
         stop-color="#438e96"
         stop-opacity="1"
         offset="45%"
         id="stop1" />
      <stop
         stop-color="#839dd1"
         stop-opacity="1"
         offset="100%"
         id="stop2" />
    </linearGradient>
    <linearGradient
       inkscape:collect="always"
       xlink:href="#uundulate-grad"
       id="linearGradient25"
       x1="373.39325"
       y1="-188.98347"
       x2="373.39325"
       y2="1046.007"
       gradientTransform="scale(1.0712919,0.93345236)"
       gradientUnits="userSpaceOnUse" />
    <linearGradient
       inkscape:collect="always"
       xlink:href="#uundulate-grad"
       id="linearGradient26"
       x1="373.39581"
       y1="-163.32069"
       x2="373.39581"
       y2="1020.3382"
       gradientTransform="scale(1.0712845,0.93345887)"
       gradientUnits="userSpaceOnUse" />
    <linearGradient
       inkscape:collect="always"
       xlink:href="#uundulate-grad"
       id="linearGradient27"
       x1="373.39868"
       y1="-137.65813"
       x2="373.39868"
       y2="994.66913"
       gradientTransform="scale(1.0712763,0.93346598)"
       gradientUnits="userSpaceOnUse" />
    <linearGradient
       inkscape:collect="always"
       xlink:href="#uundulate-grad"
       id="linearGradient28"
       x1="373.40182"
       y1="-111.99593"
       x2="373.40182"
       y2="968.99969"
       gradientTransform="scale(1.0712674,0.93347376)"
       gradientUnits="userSpaceOnUse" />
    <linearGradient
       inkscape:collect="always"
       xlink:href="#uundulate-grad"
       id="linearGradient29"
       x1="373.40518"
       y1="-86.33403"
       x2="373.40518"
       y2="943.33002"
       gradientTransform="scale(1.0712576,0.93348232)"
       gradientUnits="userSpaceOnUse" />
    <linearGradient
       inkscape:collect="always"
       xlink:href="#uundulate-grad"
       id="linearGradient30"
       x1="373.40897"
       y1="-60.672535"
       x2="373.40897"
       y2="917.65985"
       gradientTransform="scale(1.0712467,0.93349178)"
       gradientUnits="userSpaceOnUse" />
    <linearGradient
       inkscape:collect="always"
       xlink:href="#uundulate-grad"
       id="linearGradient31"
       x1="373.41321"
       y1="-35.011593"
       x2="373.41321"
       y2="891.9892"
       gradientTransform="scale(1.0712347,0.93350229)"
       gradientUnits="userSpaceOnUse" />
    <linearGradient
       inkscape:collect="always"
       xlink:href="#uundulate-grad"
       id="linearGradient32"
       x1="373.41788"
       y1="-9.3511477"
       x2="373.41788"
       y2="866.31805"
       gradientTransform="scale(1.0712212,0.93351403)"
       gradientUnits="userSpaceOnUse" />
    <linearGradient
       inkscape:collect="always"
       xlink:href="#uundulate-grad"
       id="linearGradient33"
       x1="373.4231"
       y1="16.308559"
       x2="373.4231"
       y2="840.64612"
       gradientTransform="scale(1.071206,0.93352723)"
       gradientUnits="userSpaceOnUse" />
    <linearGradient
       inkscape:collect="always"
       xlink:href="#uundulate-grad"
       id="linearGradient34"
       x1="373.42914"
       y1="41.967461"
       x2="373.42914"
       y2="814.97345"
       gradientTransform="scale(1.0711889,0.93354219)"
       gradientUnits="userSpaceOnUse" />
    <linearGradient
       inkscape:collect="always"
       xlink:href="#uundulate-grad"
       id="linearGradient35"
       x1="373.43597"
       y1="67.62545"
       x2="373.43597"
       y2="789.2998"
       gradientTransform="scale(1.0711693,0.93355927)"
       gradientUnits="userSpaceOnUse" />
    <linearGradient
       inkscape:collect="always"
       xlink:href="#uundulate-grad"
       id="linearGradient36"
       x1="373.44385"
       y1="93.282234"
       x2="373.44385"
       y2="763.625"
       gradientTransform="scale(1.0711467,0.93357897)"
       gradientUnits="userSpaceOnUse" />
    <linearGradient
       inkscape:collect="always"
       xlink:href="#uundulate-grad"
       id="linearGradient37"
       x1="373.45303"
       y1="118.93745"
       x2="373.45303"
       y2="737.94861"
       gradientTransform="scale(1.0711203,0.93360195)"
       gradientUnits="userSpaceOnUse" />
    <linearGradient
       inkscape:collect="always"
       xlink:href="#uundulate-grad"
       id="linearGradient38"
       x1="373.4639"
       y1="144.59084"
       x2="373.4639"
       y2="712.27032"
       gradientTransform="scale(1.0710892,0.93362907)"
       gradientUnits="userSpaceOnUse" />
    <linearGradient
       inkscape:collect="always"
       xlink:href="#uundulate-grad"
       id="linearGradient39"
       x1="373.4769"
       y1="170.24168"
       x2="373.4769"
       y2="686.5896"
       gradientTransform="scale(1.0710519,0.9336616)"
       gradientUnits="userSpaceOnUse" />
    <linearGradient
       inkscape:collect="always"
       xlink:href="#uundulate-grad"
       id="linearGradient40"
       x1="373.4928"
       y1="195.88924"
       x2="373.4928"
       y2="660.90552"
       gradientTransform="scale(1.0710063,0.93370132)"
       gradientUnits="userSpaceOnUse" />
    <linearGradient
       inkscape:collect="always"
       xlink:href="#uundulate-grad"
       id="linearGradient41"
       x1="373.51263"
       y1="221.53229"
       x2="373.51263"
       y2="635.21698"
       gradientTransform="scale(1.0709494,0.9337509)"
       gradientUnits="userSpaceOnUse" />
    <linearGradient
       inkscape:collect="always"
       xlink:href="#uundulate-grad"
       id="linearGradient42"
       x1="373.53809"
       y1="247.16885"
       x2="373.53809"
       y2="609.52197"
       gradientTransform="scale(1.0708764,0.93381454)"
       gradientUnits="userSpaceOnUse" />
    <linearGradient
       inkscape:collect="always"
       xlink:href="#uundulate-grad"
       id="linearGradient43"
       x1="373.57196"
       y1="272.79584"
       x2="373.57196"
       y2="583.81732"
       gradientTransform="scale(1.0707794,0.93389921)"
       gradientUnits="userSpaceOnUse" />
    <linearGradient
       inkscape:collect="always"
       xlink:href="#uundulate-grad"
       id="linearGradient44"
       x1="373.61923"
       y1="298.40738"
       x2="373.61923"
       y2="558.09729"
       gradientTransform="scale(1.0706439,0.93401741)"
       gradientUnits="userSpaceOnUse" />
    <linearGradient
       inkscape:collect="always"
       xlink:href="#uundulate-grad"
       id="linearGradient45"
       x1="373.68985"
       y1="323.99219"
       x2="373.68985"
       y2="532.35052"
       gradientTransform="scale(1.0704415,0.93419397)"
       gradientUnits="userSpaceOnUse" />
    <linearGradient
       inkscape:collect="always"
       xlink:href="#uundulate-grad"
       id="linearGradient46"
       x1="373.80673"
       y1="349.52399"
       x2="373.80673"
       y2="506.55075"
       gradientTransform="scale(1.0701068,0.93448617)"
       gradientUnits="userSpaceOnUse" />
    <linearGradient
       inkscape:collect="always"
       xlink:href="#uundulate-grad"
       id="linearGradient47"
       x1="374.0376"
       y1="374.92542"
       x2="374.0376"
       y2="480.62067"
       gradientTransform="scale(1.0694464,0.93506326)"
       gradientUnits="userSpaceOnUse" />
    <linearGradient
       inkscape:collect="always"
       xlink:href="#uundulate-grad"
       id="linearGradient48"
       x1="374.70721"
       y1="399.82617"
       x2="374.70721"
       y2="454.19009"
       gradientTransform="scale(1.0675352,0.93673723)"
       gradientUnits="userSpaceOnUse" />
    <linearGradient
       inkscape:collect="always"
       xlink:href="#uundulate-grad"
       id="linearGradient49"
       x1="373.39325"
       y1="-188.98347"
       x2="373.39325"
       y2="1046.007"
       gradientTransform="scale(1.0712919,0.93345236)"
       gradientUnits="userSpaceOnUse" />
  </defs>
  <g
     stroke-width="3"
     stroke="url(#uundulate-grad)"
     fill="none"
     id="g25"
     style="stroke:url(#linearGradient49)"
     transform="matrix(1.2938652,0,0,1.2938652,53.171116,-337.36454)">
    <path
       d="M 741.88705,-17.818616 C 871.70272,210.21036 1117.535,774.89046 1047.7736,933.38676 978.01214,1091.8831 674.75562,745.57307 407.03208,742.9636 139.30854,740.35413 -144.03432,1016.8941 -237.29941,920.8613 -330.56451,824.8285 -110.82664,481.47819 -40.640366,282.00617 29.545906,82.534141 2.6574546,55.720262 99.594694,-36.604424 196.53193,-128.92911 290.84747,-165.06604 424.65838,-161.15233 c 133.81091,3.91371 187.413,-84.69526 317.22867,143.333714 C 871.70272,210.21036 1117.535,774.89046 1047.7736,933.38676"
       id="path2"
       style="stroke:url(#linearGradient25)" />
    <path
       d="M 727.64169,-0.40954029 C 852.04837,218.11823 1087.6377,759.26999 1020.783,911.16228 953.92823,1063.0546 663.30741,731.17416 406.73901,728.67342 150.17062,726.17268 -121.36629,991.19015 -210.74533,899.15871 -300.12438,807.12728 -89.542259,478.08324 -22.280415,286.92254 44.981429,95.761852 19.21333,70.065218 112.11152,-18.412606 205.00971,-106.89043 295.39543,-141.52165 423.63088,-137.77101 551.86634,-134.02038 603.23501,-218.93731 727.64169,-0.40954029 852.04837,218.11823 1087.6377,759.26999 1020.783,911.16228"
       id="path3"
       style="stroke:url(#linearGradient26)" />
    <path
       d="M 713.39646,16.999597 C 832.39415,226.02616 1057.7404,743.64959 993.79245,888.93786 929.84445,1034.2261 651.85931,716.77531 406.44607,714.3833 161.03282,711.99128 -98.698132,965.48625 -184.19113,877.45619 -269.68414,789.42612 -68.257757,474.68834 -3.920341,291.83898 60.417075,108.98962 35.769328,84.410235 124.62846,-0.2207275 213.4876,-84.85169 299.94351,-117.97721 422.60351,-114.38964 c 122.66,3.58757 171.79525,-77.63733 290.79295,131.389237 C 832.39415,226.02616 1057.7404,743.64959 993.79245,888.93786"
       id="path4"
       style="stroke:url(#linearGradient27)" />
    <path
       d="M 699.15116,34.408673 C 812.73987,233.93403 1027.8432,728.02912 966.80188,866.71338 905.76061,1005.3976 640.41116,702.3764 406.15306,700.09312 171.89496,697.80983 -76.030038,939.7823 -157.63699,855.7536 -239.24395,771.7249 -46.973316,471.29338 14.439672,296.75536 75.85266,122.21734 52.325265,98.755191 137.14535,17.97109 221.96543,-62.81301 304.49153,-94.432822 421.57608,-91.008326 538.66062,-87.583829 585.56245,-165.11668 699.15116,34.408673 812.73987,233.93403 1027.8432,728.02912 966.80188,866.71338"
       id="path5"
       style="stroke:url(#linearGradient28)" />
    <path
       d="m 684.9058,51.81781 c 108.17973,190.02415 313.04,660.5909 254.90545,792.67114 C 881.67671,976.5692 628.96295,687.97755 405.85999,685.80299 182.75704,683.62843 -53.362005,914.07841 -131.08292,834.05107 -208.80383,754.02374 -25.688937,467.89848 32.799623,301.6718 91.288184,135.44511 68.881141,113.10021 149.66217,36.162969 c 80.78104,-76.937238 159.37732,-107.051345 270.88641,-103.78992 111.50909,3.261425 156.1775,-70.579389 264.35722,119.444761 108.17973,190.02415 313.04,660.5909 254.90545,792.67114"
       id="path6"
       style="stroke:url(#linearGradient29)" />
    <path
       d="M 670.66054,69.226947 C 773.43127,249.74989 968.04853,696.7883 912.82071,822.26453 857.5929,947.74077 617.51482,673.5787 405.56702,671.51287 193.61921,669.44704 -30.69388,888.37451 -104.52875,812.34855 -178.36361,736.32258 -4.4044655,464.50359 51.159667,306.58823 106.7238,148.67288 85.437108,127.44523 162.17909,54.354848 238.92107,-18.735528 313.58754,-47.34393 419.52117,-44.245576 525.45481,-41.147222 567.8898,-111.29599 670.66054,69.226947 773.43127,249.74989 968.04853,696.7883 912.82071,822.26453"
       id="path7"
       style="stroke:url(#linearGradient30)" />
    <path
       d="M 656.41527,86.636023 C 753.77702,257.65775 938.15127,681.16783 885.83018,800.04005 833.50909,918.91228 606.0667,659.17979 405.27404,657.22269 204.48139,655.26559 -8.0257553,862.67056 -77.974575,790.64596 -147.92339,718.62136 16.880006,461.10863 69.51971,311.50461 122.15941,161.90059 101.99308,141.79018 174.696,72.546666 247.39893,3.3031514 318.13559,-23.799544 418.49377,-20.864262 518.85195,-17.928979 559.05352,-84.38571 656.41527,86.636023 753.77702,257.65775 938.15127,681.16783 885.83018,800.04005"
       id="path8"
       style="stroke:url(#linearGradient31)" />
    <path
       d="M 642.16998,104.04516 C 734.12274,265.56568 908.25397,665.54742 858.83961,777.81563 809.42525,890.08384 594.61855,644.78094 404.98104,642.93257 215.34353,641.08419 14.642339,836.96667 -51.420435,768.94343 -117.48321,700.9202 38.164447,457.71373 87.879723,316.42105 137.595,175.12836 118.54901,156.1352 187.21289,90.738545 255.87677,25.341892 322.68361,-0.25509806 417.46634,2.5171132 512.24906,5.2893245 550.21721,-57.475365 642.16998,104.04516 734.12274,265.56568 908.25397,665.54742 858.83961,777.81563"
       id="path9"
       style="stroke:url(#linearGradient32)" />
    <path
       d="M 627.92462,121.45424 C 714.4684,273.47355 878.35661,649.92695 831.84898,755.59115 785.34134,861.25535 583.17033,630.38203 404.68797,628.64238 226.20561,626.90274 37.310372,811.26271 -24.866357,747.24085 -87.043085,683.21898 59.448826,454.31878 106.23967,321.33742 153.03052,188.35607 135.10489,170.48015 199.72971,108.93036 264.35454,47.380572 327.23157,23.289287 416.43884,25.898427 c 89.20727,2.60914 124.942,-56.463509 211.48578,95.555813 86.54378,152.01931 250.43199,528.47271 203.92436,634.13691"
       id="path10"
       style="stroke:url(#linearGradient33)" />
    <path
       d="m 613.67938,138.86331 c 81.1348,142.51811 234.78,495.44318 191.17909,594.50336 C 761.25756,832.42686 571.72224,615.98312 404.39503,614.3522 237.06781,612.72128 59.978527,785.55876 1.6878441,725.53826 -56.602839,665.51776 80.733328,450.92382 124.59975,326.2538 168.46617,201.58378 151.66089,184.82511 212.24666,127.12218 272.83243,69.419252 331.77965,46.833672 415.41147,49.279741 c 83.63181,2.446069 117.13312,-52.9345398 198.26791,89.583569 81.1348,142.51811 234.78,495.44318 191.17909,594.50336"
       id="path11"
       style="stroke:url(#linearGradient34)" />
    <path
       d="m 599.43409,156.27245 c 75.7258,133.0169 219.12799,462.41363 178.43381,554.8698 C 737.17372,803.59842 560.27409,601.58427 404.10202,600.06208 247.92995,598.53989 82.646621,759.85487 28.241984,703.83573 -26.162654,647.8166 102.01777,447.52892 142.95976,331.17024 183.90175,214.81156 168.21682,199.17013 224.76355,145.31406 281.31027,91.457993 336.32767,70.378119 414.38403,72.661116 c 78.05636,2.282998 109.32425,-49.40557 185.05006,83.611334 75.7258,133.0169 219.12799,462.41363 178.43381,554.8698"
       id="path12"
       style="stroke:url(#linearGradient35)" />
    <path
       d="m 585.18879,173.68159 c 70.31682,123.51569 203.476,429.38408 165.68854,515.23624 C 713.08988,774.76999 548.82593,587.18542 403.80901,585.77195 258.7921,584.35849 105.31472,734.15097 54.796123,682.13321 4.2775315,630.11544 123.30221,444.13402 161.31977,336.08668 199.33734,228.03933 184.77276,213.51514 237.28043,163.50594 289.7881,113.49673 340.87569,93.922565 413.35659,96.042491 c 72.48091,2.119926 101.51538,-45.876601 171.8322,77.639099 70.31682,123.51569 203.476,429.38408 165.68854,515.23624"
       id="path13"
       style="stroke:url(#linearGradient36)" />
    <path
       d="M 570.94349,191.09066 C 635.85133,305.10515 758.76749,587.4452 723.88676,666.69335 689.00604,745.9415 537.37778,572.78651 403.51601,571.48177 269.65424,570.17704 127.98281,708.44702 81.350263,660.43062 34.717717,612.41422 144.58665,440.73907 179.67979,341.00305 214.77292,241.26704 201.3287,227.8601 249.79732,181.69776 c 48.46862,-46.16235 95.62639,-64.23081 162.53184,-62.27395 66.90545,1.95685 93.7065,-42.347637 158.61433,71.66685 64.90784,114.01449 187.824,396.35454 152.94327,475.60269"
       id="path14"
       style="stroke:url(#linearGradient37)" />
    <path
       d="m 556.6982,208.4998 c 59.49885,104.51328 172.17199,363.32499 140.198,435.96913 -31.974,72.64413 -170.96657,-86.08127 -293.6732,-87.27728 -122.70662,-1.19601 -252.5721,125.55148 -295.3186,81.53644 -42.746498,-44.01503 57.96669,-201.38392 90.1354,-292.8086 32.16871,-91.42468 19.84483,-103.71437 64.2744,-146.02985 44.42957,-42.31549 87.65753,-58.87824 148.98752,-57.08446 61.33,1.79378 85.89763,-38.81866 145.39648,65.69462 59.49885,104.51328 172.17199,363.32499 140.198,435.96913"
       id="path15"
       style="stroke:url(#linearGradient38)" />
    <path
       d="m 542.4529,225.90889 c 54.08986,95.01207 156.52,330.29545 127.45273,396.33557 C 640.83835,688.28459 514.48147,543.98876 402.93,542.90148 291.37852,541.8142 173.319,657.03919 134.45854,617.02552 95.598087,577.01185 187.15553,433.94923 216.39981,350.83588 c 29.24428,-83.11334 18.04076,-94.28579 58.43128,-132.75441 40.39051,-38.46862 79.68865,-53.52567 135.4432,-51.89496 55.75454,1.63071 78.08875,-35.28969 132.17861,59.72238 54.08986,95.01207 156.52,330.29545 127.45273,396.33557"
       id="path16"
       style="stroke:url(#linearGradient39)" />
    <path
       d="m 528.20762,243.318 c 48.68088,85.51086 140.868,297.2659 114.70745,356.70201 -26.16054,59.43611 -139.88174,-70.43013 -240.27806,-71.40868 -100.39633,-0.97855 -206.6499,102.72393 -241.62431,66.71163 -34.97441,-36.0123 47.42729,-164.76866 73.74714,-239.57067 26.31985,-74.80201 16.23668,-84.85721 52.58815,-119.47897 36.35146,-34.62176 71.71979,-48.17311 121.89888,-46.70547 50.17909,1.46765 70.27987,-31.76072 118.96075,53.75015 48.68088,85.51086 140.868,297.2659 114.70745,356.70201"
       id="path17"
       style="stroke:url(#linearGradient40)" />
    <path
       d="m 513.96232,260.7271 c 43.27189,76.00966 125.216,264.23636 101.96218,317.06846 -23.25381,52.8321 -124.33932,-62.60456 -213.5805,-63.47438 -89.24118,-0.86983 -183.6888,91.31016 -214.77716,59.29923 -31.08837,-32.01094 42.15759,-146.46104 65.55301,-212.95171 23.39543,-66.49068 14.43261,-75.42864 46.74502,-106.20353 32.31242,-30.7749 63.75093,-42.82054 108.35456,-41.51597 44.60364,1.30457 62.471,-28.23176 105.74289,47.7779 43.27189,76.00966 125.216,264.23636 101.96218,317.06846"
       id="path18"
       style="stroke:url(#linearGradient41)" />
    <path
       d="m 499.71704,278.13621 c 37.86291,66.50845 109.564,231.20681 89.21691,277.4349 -20.34709,46.22809 -108.79691,-54.77899 -186.88294,-55.54009 -78.08603,-0.76109 -160.7277,79.8964 -187.93002,51.88683 -27.20232,-28.00957 36.88789,-128.1534 57.35889,-186.33275 20.471,-58.17934 12.62853,-66.00005 40.90189,-92.92809 28.27336,-26.92803 55.78206,-37.46797 94.81025,-36.32647 39.02818,1.1415 54.66212,-24.70278 92.52502,41.80567 37.86291,66.50845 109.564,231.20681 89.21691,277.4349"
       id="path19"
       style="stroke:url(#linearGradient42)" />
    <path
       d="m 485.47175,295.54535 c 32.45391,57.00724 93.912,198.17727 76.47163,237.80134 -17.44036,39.62407 -93.25449,-46.95342 -160.18538,-47.60579 -66.93088,-0.65237 -137.7666,68.48262 -161.08287,44.47442 -23.31627,-24.00819 31.6182,-109.84577 49.16476,-159.71378 17.54657,-49.868 10.82446,-56.57147 35.05877,-79.65265 24.23431,-23.08117 47.81319,-32.1154 81.26592,-31.13697 33.45273,0.97843 46.85325,-21.17382 79.30717,35.83343 32.45391,57.00724 93.912,198.17727 76.47163,237.80134"
       id="path20"
       style="stroke:url(#linearGradient43)" />
    <path
       d="m 471.22645,312.95445 c 27.04493,47.50604 78.26,165.14773 63.72636,198.16779 -14.53363,33.02006 -77.71207,-39.12785 -133.48781,-39.67149 -55.77574,-0.54364 -114.8055,57.06885 -134.23573,37.06202 -19.43023,-20.00683 26.3485,-91.53815 40.97064,-133.09482 14.62214,-41.55667 9.02038,-47.1429 29.21563,-66.37721 20.19526,-19.23431 39.84433,-26.76283 67.7216,-25.94748 27.87728,0.81536 39.04438,-17.64484 66.08931,29.86119 27.04493,47.50604 78.26,165.14773 63.72636,198.16779"
       id="path21"
       style="stroke:url(#linearGradient44)" />
    <path
       d="m 456.98115,330.36356 c 21.63595,38.00483 62.608,132.11818 50.98109,158.53423 -11.6269,26.41605 -62.16966,-31.30228 -106.79025,-31.73719 -44.62059,-0.43492 -91.8444,45.65508 -107.38858,29.64961 -15.54418,-16.00547 21.0788,-73.23052 32.77651,-106.47585 11.69771,-33.24534 7.2163,-37.71432 23.37251,-53.10177 16.15621,-15.38745 31.87546,-21.41027 54.17728,-20.75798 22.30182,0.65228 31.2355,-14.11588 52.87144,23.88895 21.63595,38.00483 62.608,132.11818 50.98109,158.53423"
       id="path22"
       style="stroke:url(#linearGradient45)" />
    <path
       d="m 442.73586,347.77267 c 16.22696,28.50362 46.956,99.08863 38.23582,118.90067 -8.72019,19.81203 -46.62725,-23.47671 -80.09269,-23.8029 -33.46545,-0.32618 -68.8833,34.24131 -80.54144,22.23721 -11.65814,-12.0041 15.8091,-54.92288 24.58238,-79.85689 8.77329,-24.934 5.41223,-28.28573 17.52938,-39.82632 12.11716,-11.54059 23.9066,-16.0577 40.63296,-15.56849 16.72637,0.48922 23.42663,-10.58691 39.65359,17.91672 16.22696,28.50362 46.956,99.08863 38.23582,118.90067"
       id="path23"
       style="stroke:url(#linearGradient46)" />
    <path
       d="m 428.49059,365.18177 c 10.81797,19.00242 31.304,66.05909 25.49055,79.26712 -5.81346,13.20802 -31.08483,-15.65114 -53.39513,-15.8686 -22.31029,-0.21746 -45.9222,22.82754 -53.69429,14.82481 -7.77209,-8.00274 10.5394,-36.61526 16.38825,-53.23793 5.84886,-16.62267 3.60816,-18.85716 11.68626,-26.55088 8.0781,-7.69373 15.93773,-10.70514 27.08864,-10.37899 11.15091,0.32614 15.61775,-7.05794 26.43572,11.94447 10.81797,19.00242 31.304,66.05909 25.49055,79.26712"
       id="path24"
       style="stroke:url(#linearGradient47)" />
    <path
       d="m 414.2453,382.59089 c 5.40898,9.50121 15.652,33.02955 12.74527,39.63356 -2.90673,6.60401 -15.54242,-7.82557 -26.69756,-7.9343 -11.15515,-0.10873 -22.9611,11.41377 -26.84715,7.41241 -3.88605,-4.00137 5.2697,-18.30763 8.19413,-26.61897 2.92443,-8.31133 1.80407,-9.42858 5.84312,-13.27544 4.03906,-3.84686 7.96887,-5.35257 13.54433,-5.18949 5.57545,0.16307 7.80887,-3.52897 13.21786,5.97223 5.40898,9.50121 15.652,33.02955 12.74527,39.63356"
       id="path25"
       style="stroke:url(#linearGradient48)" />
  </g>
</svg>
