<svg xmlns="http://www.w3.org/2000/svg" xmlns:xlink="http://www.w3.org/1999/xlink" opacity=".2" viewBox="0 0 1200 630">
   <defs>
      <linearGradient id="a" x1=".5" x2=".5" y1="0" y2="1">
         <stop offset="45%" stop-color="#438e96" />
         <stop offset="100%" stop-color="#839dd1" />
      </linearGradient>
      <linearGradient xlink:href="#a" id="c" x1="373.39325" x2="373.39325" y1="-188.98347" y2="1046.007"
         gradientTransform="scale(1.0713 .93345)" gradientUnits="userSpaceOnUse" />
      <linearGradient xlink:href="#a" id="d" x1="373.39581" x2="373.39581" y1="-163.32069" y2="1020.3382"
         gradientTransform="scale(1.07128 .93346)" gradientUnits="userSpaceOnUse" />
      <linearGradient xlink:href="#a" id="e" x1="373.39868" x2="373.39868" y1="-137.65813" y2="994.66913"
         gradientTransform="scale(1.07128 .93347)" gradientUnits="userSpaceOnUse" />
      <linearGradient xlink:href="#a" id="f" x1="373.40182" x2="373.40182" y1="-111.99593" y2="968.99969"
         gradientTransform="scale(1.07127 .93347)" gradientUnits="userSpaceOnUse" />
      <linearGradient xlink:href="#a" id="g" x1="373.40518" x2="373.40518" y1="-86.33403" y2="943.33002"
         gradientTransform="scale(1.07126 .93348)" gradientUnits="userSpaceOnUse" />
      <linearGradient xlink:href="#a" id="h" x1="373.40897" x2="373.40897" y1="-60.672535" y2="917.65985"
         gradientTransform="scale(1.07125 .9335)" gradientUnits="userSpaceOnUse" />
      <linearGradient xlink:href="#a" id="i" x1="373.41321" x2="373.41321" y1="-35.011593" y2="891.9892"
         gradientTransform="scale(1.07123 .9335)" gradientUnits="userSpaceOnUse" />
      <linearGradient xlink:href="#a" id="j" x1="373.41788" x2="373.41788" y1="-9.3511477" y2="866.31805"
         gradientTransform="scale(1.07122 .93351)" gradientUnits="userSpaceOnUse" />
      <linearGradient xlink:href="#a" id="k" x1="373.4231" x2="373.4231" y1="16.308559" y2="840.64612"
         gradientTransform="scale(1.0712 .93353)" gradientUnits="userSpaceOnUse" />
      <linearGradient xlink:href="#a" id="l" x1="373.42914" x2="373.42914" y1="41.967461" y2="814.97345"
         gradientTransform="scale(1.07119 .93354)" gradientUnits="userSpaceOnUse" />
      <linearGradient xlink:href="#a" id="m" x1="373.43597" x2="373.43597" y1="67.62545" y2="789.2998"
         gradientTransform="scale(1.07117 .93356)" gradientUnits="userSpaceOnUse" />
      <linearGradient xlink:href="#a" id="n" x1="373.44385" x2="373.44385" y1="93.282234" y2="763.625"
         gradientTransform="scale(1.07115 .93358)" gradientUnits="userSpaceOnUse" />
      <linearGradient xlink:href="#a" id="o" x1="373.45303" x2="373.45303" y1="118.93745" y2="737.94861"
         gradientTransform="scale(1.07112 .9336)" gradientUnits="userSpaceOnUse" />
      <linearGradient xlink:href="#a" id="p" x1="373.4639" x2="373.4639" y1="144.59084" y2="712.27032"
         gradientTransform="scale(1.07109 .93363)" gradientUnits="userSpaceOnUse" />
      <linearGradient xlink:href="#a" id="q" x1="373.4769" x2="373.4769" y1="170.24168" y2="686.5896"
         gradientTransform="scale(1.07105 .93366)" gradientUnits="userSpaceOnUse" />
      <linearGradient xlink:href="#a" id="r" x1="373.4928" x2="373.4928" y1="195.88924" y2="660.90552"
         gradientTransform="scale(1.071 .9337)" gradientUnits="userSpaceOnUse" />
      <linearGradient xlink:href="#a" id="s" x1="373.51263" x2="373.51263" y1="221.53229" y2="635.21698"
         gradientTransform="scale(1.07095 .93375)" gradientUnits="userSpaceOnUse" />
      <linearGradient xlink:href="#a" id="t" x1="373.53809" x2="373.53809" y1="247.16885" y2="609.52197"
         gradientTransform="scale(1.07088 .93381)" gradientUnits="userSpaceOnUse" />
      <linearGradient xlink:href="#a" id="u" x1="373.57196" x2="373.57196" y1="272.79584" y2="583.81732"
         gradientTransform="scale(1.07078 .9339)" gradientUnits="userSpaceOnUse" />
      <linearGradient xlink:href="#a" id="v" x1="373.61923" x2="373.61923" y1="298.40738" y2="558.09729"
         gradientTransform="scale(1.07064 .93402)" gradientUnits="userSpaceOnUse" />
      <linearGradient xlink:href="#a" id="w" x1="373.68985" x2="373.68985" y1="323.99219" y2="532.35052"
         gradientTransform="scale(1.07044 .9342)" gradientUnits="userSpaceOnUse" />
      <linearGradient xlink:href="#a" id="x" x1="373.80673" x2="373.80673" y1="349.52399" y2="506.55075"
         gradientTransform="scale(1.0701 .93449)" gradientUnits="userSpaceOnUse" />
      <linearGradient xlink:href="#a" id="y" x1="374.0376" x2="374.0376" y1="374.92542" y2="480.62067"
         gradientTransform="scale(1.06945 .93506)" gradientUnits="userSpaceOnUse" />
      <linearGradient xlink:href="#a" id="z" x1="374.70721" x2="374.70721" y1="399.82617" y2="454.19009"
         gradientTransform="scale(1.06754 .93674)" gradientUnits="userSpaceOnUse" />
      <linearGradient xlink:href="#a" id="b" x1="373.39325" x2="373.39325" y1="-188.98347" y2="1046.007"
         gradientTransform="scale(1.0713 .93345)" gradientUnits="userSpaceOnUse" />
   </defs>
   <g fill="none" stroke="url(#b)" stroke-width="3" transform="translate(53.171116 -337.36454) scale(1.29387)">
      <path stroke="url(#c)"
         d="M741.88705-17.818616C871.70272 210.21036 1117.535 774.89046 1047.7736 933.38676 978.01214 1091.8831 674.75562 745.57307 407.03208 742.9636c-267.72354-2.60947-551.0664 273.9305-644.33149 177.8977-93.2651-96.0328 126.47277-439.38311 196.659044-638.85513C29.545906 82.534141 2.6574546 55.720262 99.594694-36.604424 196.53193-128.92911 290.84747-165.06604 424.65838-161.15233c133.81091 3.91371 187.413-84.69526 317.22867 143.333714C871.70272 210.21036 1117.535 774.89046 1047.7736 933.38676" />
      <path stroke="url(#d)"
         d="M727.64169-.40954029C852.04837 218.11823 1087.6377 759.26999 1020.783 911.16228c-66.85477 151.89232-357.47559-179.98812-614.04399-182.48886-256.56839-2.50074-528.1053 262.51673-617.48434 170.48529-89.37905-92.03143 121.203071-421.07547 188.464915-612.23617C44.981429 95.761852 19.21333 70.065218 112.11152-18.412606S295.39543-141.52165 423.63088-137.77101c128.23546 3.75063 179.60413-81.1663 304.01081 137.36146971C852.04837 218.11823 1087.6377 759.26999 1020.783 911.16228" />
      <path stroke="url(#e)"
         d="M713.39646 16.999597C832.39415 226.02616 1057.7404 743.64959 993.79245 888.93786c-63.948 145.28824-341.93314-172.16255-587.34638-174.55456-245.41325-2.39202-505.144202 251.10295-590.6372 163.07289-85.49301-88.03007 115.933373-402.76785 180.270789-585.61721S35.769328 84.410235 124.62846-.2207275C213.4876-84.85169 299.94351-117.97721 422.60351-114.38964c122.66 3.58757 171.79525-77.63733 290.79295 131.389237C832.39415 226.02616 1057.7404 743.64959 993.79245 888.93786" />
      <path stroke="url(#f)"
         d="M699.15116 34.408673C812.73987 233.93403 1027.8432 728.02912 966.80188 866.71338 905.76061 1005.3976 640.41116 702.3764 406.15306 700.09312 171.89496 697.80983-76.030038 939.7823-157.63699 855.7536c-81.60696-84.0287 110.663674-384.46022 172.076662-558.99824C75.85266 122.21734 52.325265 98.755191 137.14535 17.97109c84.82008-80.7841 167.34618-112.403912 284.43073-108.979416 117.08454 3.424497 163.98637-74.108354 277.57508 125.416999C812.73987 233.93403 1027.8432 728.02912 966.80188 866.71338" />
      <path stroke="url(#g)"
         d="M684.9058 51.81781c108.17973 190.02415 313.04 660.5909 254.90545 792.67114-58.13454 132.08025-310.8483-156.5114-533.95126-158.68596-223.10295-2.17456-459.221995 228.27542-536.94291 148.24808-77.72091-80.02733 105.393983-366.15259 163.882543-532.37927C91.288184 135.44511 68.881141 113.10021 149.66217 36.162969c80.78104-76.937238 159.37732-107.051345 270.88641-103.78992C532.05767-64.365526 576.72608-138.20634 684.9058 51.81781c108.17973 190.02415 313.04 660.5909 254.90545 792.67114" />
      <path stroke="url(#h)"
         d="M670.66054 69.226947C773.43127 249.74989 968.04853 696.7883 912.82071 822.26453 857.5929 947.74077 617.51482 673.5787 405.56702 671.51287c-211.94781-2.06583-436.2609 216.86164-510.09577 140.83568-73.83486-76.02597 100.1242845-347.84496 155.688417-505.76032C106.7238 148.67288 85.437108 127.44523 162.17909 54.354848 238.92107-18.735528 313.58754-47.34393 419.52117-44.245576 525.45481-41.147222 567.8898-111.29599 670.66054 69.226947 773.43127 249.74989 968.04853 696.7883 912.82071 822.26453" />
      <path stroke="url(#i)"
         d="M656.41527 86.636023c97.36175 171.021727 281.736 594.531807 229.41491 713.404027-52.32109 118.87223-279.76348-140.86026-480.55614-142.81736-200.79265-1.9571-413.2997953 205.44787-483.248615 133.42327-69.948815-72.0246 94.854581-329.53733 147.494285-479.14135 52.6397-149.60402 32.47337-169.71443 105.17629-238.957944 72.70293-69.2435146 143.43959-96.34621 243.79777-93.410928 100.35818 2.935283 140.55975-63.521448 237.9215 107.500285 97.36175 171.021727 281.736 594.531807 229.41491 713.404027" />
      <path stroke="url(#j)"
         d="M642.16998 104.04516c91.95276 161.52052 266.08399 561.50226 216.66963 673.77047-49.41436 112.26821-264.22106-133.03469-453.85857-134.88306-189.63751-1.84838-390.338701 194.0341-456.401475 126.01086-66.062775-68.02323 89.584882-311.2297 139.300158-452.52238C137.595 175.12836 118.54901 156.1352 187.21289 90.738545 255.87677 25.341892 322.68361-.25509806 417.46634 2.5171132 512.24906 5.2893245 550.21721-57.475365 642.16998 104.04516c91.95276 161.52052 266.08399 561.50226 216.66963 673.77047" />
      <path stroke="url(#k)"
         d="M627.92462 121.45424c86.54378 152.01931 250.43199 528.47271 203.92436 634.13691-46.50764 105.6642-248.67865-125.20912-427.16101-126.94877-178.48236-1.73964-367.377598 182.62033-429.554327 118.59847-62.176728-64.02187 84.315183-292.92207 131.106027-425.90343 46.79085-132.98135 28.86522-150.85727 93.49004-212.40706 64.62483-61.549788 127.50186-85.641073 216.70913-83.031933 89.20727 2.60914 124.942-56.463509 211.48578 95.555813 86.54378 152.01931 250.43199 528.47271 203.92436 634.13691" />
      <path stroke="url(#l)"
         d="M613.67938 138.86331c81.1348 142.51811 234.78 495.44318 191.17909 594.50336-43.60091 99.06019-233.13623-117.38355-400.46344-119.01447C237.06781 612.72128 59.978527 785.55876 1.6878441 725.53826-56.602839 665.51776 80.733328 450.92382 124.59975 326.2538c43.86642-124.67002 27.06114-141.42869 87.64691-199.13162 60.58577-57.702928 119.53299-80.288508 203.16481-77.842439 83.63181 2.446069 117.13312-52.9345398 198.26791 89.583569 81.1348 142.51811 234.78 495.44318 191.17909 594.50336" />
      <path stroke="url(#m)"
         d="M599.43409 156.27245c75.7258 133.0169 219.12799 462.41363 178.43381 554.8698-40.69418 92.45617-217.59381-109.55798-373.76588-111.08017-156.17207-1.52219-321.455399 159.79279-375.860036 103.77365-54.404638-56.01913 73.775786-256.30681 114.717776-372.66549 40.94199-116.35868 25.25706-132.00011 81.80379-185.85618 56.54672-53.856067 111.56412-74.935941 189.62048-72.652944 78.05636 2.282998 109.32425-49.40557 185.05006 83.611334 75.7258 133.0169 219.12799 462.41363 178.43381 554.8698" />
      <path stroke="url(#n)"
         d="M585.18879 173.68159c70.31682 123.51569 203.476 429.38408 165.68854 515.23624-37.78745 85.85216-202.0514-101.73241-347.06832-103.14588-145.01691-1.41346-298.49429 148.37902-349.012887 96.36126C4.2775315 630.11544 123.30221 444.13402 161.31977 336.08668c38.01757-108.04735 23.45299-122.57154 75.96066-172.58074 52.50767-50.00921 103.59526-69.583375 176.07616-67.463449 72.48091 2.119926 101.51538-45.876601 171.8322 77.639099 70.31682 123.51569 203.476 429.38408 165.68854 515.23624" />
      <path stroke="url(#o)"
         d="M570.94349 191.09066c64.90784 114.01449 187.824 396.35454 152.94327 475.60269-34.88072 79.24815-186.50898-93.90684-320.37075-95.21158-133.86177-1.30473-275.5332 136.96525-322.165747 88.94885-46.632546-48.0164 63.236387-219.69155 98.329527-319.42757 35.09313-99.73601 21.64891-113.14295 70.11753-159.30529 48.46862-46.16235 95.62639-64.23081 162.53184-62.27395 66.90545 1.95685 93.7065-42.347637 158.61433 71.66685 64.90784 114.01449 187.824 396.35454 152.94327 475.60269" />
      <path stroke="url(#p)"
         d="M556.6982 208.4998c59.49885 104.51328 172.17199 363.32499 140.198 435.96913-31.974 72.64413-170.96657-86.08127-293.6732-87.27728-122.70662-1.19601-252.5721 125.55148-295.3186 81.53644-42.746498-44.01503 57.96669-201.38392 90.1354-292.8086 32.16871-91.42468 19.84483-103.71437 64.2744-146.02985 44.42957-42.31549 87.65753-58.87824 148.98752-57.08446 61.33 1.79378 85.89763-38.81866 145.39648 65.69462 59.49885 104.51328 172.17199 363.32499 140.198 435.96913" />
      <path stroke="url(#q)"
         d="M542.4529 225.90889c54.08986 95.01207 156.52 330.29545 127.45273 396.33557-29.06728 66.04013-155.42416-78.2557-266.97563-79.34298-111.55148-1.08728-229.611 114.13771-268.47146 74.12404-38.860453-40.01367 52.69699-183.07629 81.94127-266.18964 29.24428-83.11334 18.04076-94.28579 58.43128-132.75441 40.39051-38.46862 79.68865-53.52567 135.4432-51.89496 55.75454 1.63071 78.08875-35.28969 132.17861 59.72238 54.08986 95.01207 156.52 330.29545 127.45273 396.33557" />
      <path stroke="url(#r)"
         d="M528.20762 243.318c48.68088 85.51086 140.868 297.2659 114.70745 356.70201-26.16054 59.43611-139.88174-70.43013-240.27806-71.40868-100.39633-.97855-206.6499 102.72393-241.62431 66.71163-34.97441-36.0123 47.42729-164.76866 73.74714-239.57067 26.31985-74.80201 16.23668-84.85721 52.58815-119.47897 36.35146-34.62176 71.71979-48.17311 121.89888-46.70547 50.17909 1.46765 70.27987-31.76072 118.96075 53.75015 48.68088 85.51086 140.868 297.2659 114.70745 356.70201" />
      <path stroke="url(#s)"
         d="M513.96232 260.7271c43.27189 76.00966 125.216 264.23636 101.96218 317.06846-23.25381 52.8321-124.33932-62.60456-213.5805-63.47438-89.24118-.86983-183.6888 91.31016-214.77716 59.29923-31.08837-32.01094 42.15759-146.46104 65.55301-212.95171 23.39543-66.49068 14.43261-75.42864 46.74502-106.20353 32.31242-30.7749 63.75093-42.82054 108.35456-41.51597 44.60364 1.30457 62.471-28.23176 105.74289 47.7779 43.27189 76.00966 125.216 264.23636 101.96218 317.06846" />
      <path stroke="url(#t)"
         d="M499.71704 278.13621c37.86291 66.50845 109.564 231.20681 89.21691 277.4349-20.34709 46.22809-108.79691-54.77899-186.88294-55.54009-78.08603-.76109-160.7277 79.8964-187.93002 51.88683-27.20232-28.00957 36.88789-128.1534 57.35889-186.33275 20.471-58.17934 12.62853-66.00005 40.90189-92.92809 28.27336-26.92803 55.78206-37.46797 94.81025-36.32647 39.02818 1.1415 54.66212-24.70278 92.52502 41.80567 37.86291 66.50845 109.564 231.20681 89.21691 277.4349" />
      <path stroke="url(#u)"
         d="M485.47175 295.54535c32.45391 57.00724 93.912 198.17727 76.47163 237.80134-17.44036 39.62407-93.25449-46.95342-160.18538-47.60579-66.93088-.65237-137.7666 68.48262-161.08287 44.47442-23.31627-24.00819 31.6182-109.84577 49.16476-159.71378 17.54657-49.868 10.82446-56.57147 35.05877-79.65265 24.23431-23.08117 47.81319-32.1154 81.26592-31.13697 33.45273.97843 46.85325-21.17382 79.30717 35.83343 32.45391 57.00724 93.912 198.17727 76.47163 237.80134" />
      <path stroke="url(#v)"
         d="M471.22645 312.95445c27.04493 47.50604 78.26 165.14773 63.72636 198.16779-14.53363 33.02006-77.71207-39.12785-133.48781-39.67149-55.77574-.54364-114.8055 57.06885-134.23573 37.06202-19.43023-20.00683 26.3485-91.53815 40.97064-133.09482 14.62214-41.55667 9.02038-47.1429 29.21563-66.37721 20.19526-19.23431 39.84433-26.76283 67.7216-25.94748 27.87728.81536 39.04438-17.64484 66.08931 29.86119 27.04493 47.50604 78.26 165.14773 63.72636 198.16779" />
      <path stroke="url(#w)"
         d="M456.98115 330.36356c21.63595 38.00483 62.608 132.11818 50.98109 158.53423-11.6269 26.41605-62.16966-31.30228-106.79025-31.73719-44.62059-.43492-91.8444 45.65508-107.38858 29.64961-15.54418-16.00547 21.0788-73.23052 32.77651-106.47585 11.69771-33.24534 7.2163-37.71432 23.37251-53.10177 16.15621-15.38745 31.87546-21.41027 54.17728-20.75798 22.30182.65228 31.2355-14.11588 52.87144 23.88895 21.63595 38.00483 62.608 132.11818 50.98109 158.53423" />
      <path stroke="url(#x)"
         d="M442.73586 347.77267c16.22696 28.50362 46.956 99.08863 38.23582 118.90067-8.72019 19.81203-46.62725-23.47671-80.09269-23.8029-33.46545-.32618-68.8833 34.24131-80.54144 22.23721-11.65814-12.0041 15.8091-54.92288 24.58238-79.85689 8.77329-24.934 5.41223-28.28573 17.52938-39.82632 12.11716-11.54059 23.9066-16.0577 40.63296-15.56849 16.72637.48922 23.42663-10.58691 39.65359 17.91672 16.22696 28.50362 46.956 99.08863 38.23582 118.90067" />
      <path stroke="url(#y)"
         d="M428.49059 365.18177c10.81797 19.00242 31.304 66.05909 25.49055 79.26712-5.81346 13.20802-31.08483-15.65114-53.39513-15.8686-22.31029-.21746-45.9222 22.82754-53.69429 14.82481-7.77209-8.00274 10.5394-36.61526 16.38825-53.23793 5.84886-16.62267 3.60816-18.85716 11.68626-26.55088 8.0781-7.69373 15.93773-10.70514 27.08864-10.37899 11.15091.32614 15.61775-7.05794 26.43572 11.94447 10.81797 19.00242 31.304 66.05909 25.49055 79.26712" />
      <path stroke="url(#z)"
         d="M414.2453 382.59089c5.40898 9.50121 15.652 33.02955 12.74527 39.63356-2.90673 6.60401-15.54242-7.82557-26.69756-7.9343-11.15515-.10873-22.9611 11.41377-26.84715 7.41241-3.88605-4.00137 5.2697-18.30763 8.19413-26.61897 2.92443-8.31133 1.80407-9.42858 5.84312-13.27544 4.03906-3.84686 7.96887-5.35257 13.54433-5.18949 5.57545.16307 7.80887-3.52897 13.21786 5.97223 5.40898 9.50121 15.652 33.02955 12.74527 39.63356" />
   </g>
</svg>